<?xml version="1.0" encoding="utf-8"?>
<!-- Generator: Adobe Illustrator 27.5.0, SVG Export Plug-In . SVG Version: 6.00 Build 0)  -->
<svg version="1.1" id="Layer_1" xmlns="http://www.w3.org/2000/svg" xmlns:xlink="http://www.w3.org/1999/xlink" x="0px" y="0px"
	 viewBox="0 0 384 384.1" style="enable-background:new 0 0 384 384.1;" xml:space="preserve">
<path d="M372.8,65.6c15-15,15-39.4,0-54.4s-39.4-15-54.4,0L192.1,137.7L65.6,11.4c-15-15-39.4-15-54.4,0s-15,39.4,0,54.4
	l126.5,126.3L11.4,318.5c-15,15-15,39.4,0,54.4c15,15,39.4,15,54.4,0l126.3-126.5l126.5,126.3c15,15,39.4,15,54.4,0
	c15-15,15-39.4,0-54.4L246.4,192.1L372.8,65.6z"/>
</svg>
